<?xml version="1.0" encoding="UTF-8" standalone="no"?>
<!-- Created with Inkscape (http://www.inkscape.org/) -->

<svg
   xmlns:dc="http://purl.org/dc/elements/1.1/"
   xmlns:cc="http://creativecommons.org/ns#"
   xmlns:rdf="http://www.w3.org/1999/02/22-rdf-syntax-ns#"
   xmlns:svg="http://www.w3.org/2000/svg"
   xmlns="http://www.w3.org/2000/svg"
   xmlns:sodipodi="http://sodipodi.sourceforge.net/DTD/sodipodi-0.dtd"
   xmlns:inkscape="http://www.inkscape.org/namespaces/inkscape"
   version="1.1"
   id="svg80"
   xml:space="preserve"
   width="466.66666"
   height="200"
   viewBox="0 0 466.66666 200"
   sodipodi:docname="AK47.svg"
   inkscape:version="0.92.1 r15371"><metadata
     id="metadata86"><rdf:RDF><cc:Work
         rdf:about=""><dc:format>image/svg+xml</dc:format><dc:type
           rdf:resource="http://purl.org/dc/dcmitype/StillImage" /><dc:title></dc:title></cc:Work></rdf:RDF></metadata><defs
     id="defs84"><clipPath
       clipPathUnits="userSpaceOnUse"
       id="clipPath96"><path
         d="M 0,150 H 350 V 0 H 0 Z"
         id="path94"
         inkscape:connector-curvature="0" /></clipPath></defs><sodipodi:namedview
     pagecolor="#ffffff"
     bordercolor="#666666"
     borderopacity="1"
     objecttolerance="10"
     gridtolerance="10"
     guidetolerance="10"
     inkscape:pageopacity="0"
     inkscape:pageshadow="2"
     inkscape:window-width="667"
     inkscape:window-height="480"
     id="namedview82"
     showgrid="false"
     inkscape:zoom="0.68142859"
     inkscape:cx="233.33333"
     inkscape:cy="100"
     inkscape:window-x="0"
     inkscape:window-y="0"
     inkscape:window-maximized="0"
     inkscape:current-layer="g88" /><g
     id="g88"
     inkscape:groupmode="layer"
     inkscape:label="AK47"
     transform="matrix(1.3333333,0,0,-1.3333333,0,200)"><g
       id="g90"><g
         id="g92"
         clip-path="url(#clipPath96)"><g
           id="g98"
           transform="translate(216.5469,79.1553)"><path
             d="m 0,0 c -2.68,-0.065 -5.336,0.1 -8.146,0.273 -1.307,0.081 -2.661,0.165 -4.106,0.234 -3.525,0.165 -4.232,1.616 -4.32,1.838 v 6.808 c 0.125,0.04 0.23,0.095 0.306,0.194 0.131,0.131 0.215,0.256 0.282,0.35 0.099,0.145 0.222,0.327 1.822,0.327 1.676,0 5.566,-0.197 7.734,-0.315 0.876,-0.047 1.545,-0.085 1.82,-0.102 0.547,-0.426 1.088,-1.142 1.088,-2.318 0,-2.384 0.379,-3.701 -3.834,-5.488 -0.128,0.085 -0.212,-0.655 1.149,-0.499 1.361,0.157 2.85,1.519 3.404,2.327 0.553,0.808 1.83,3.702 1.871,4.085 l 1.405,0.388 c 0,0 1.378,0.545 1.826,1.432 L 2.514,9.522 V 6.025 c 0,0 -0.549,-2.097 0,-4.139 C 2.636,1.431 2.789,1.215 2.988,1.066 2.47,0.522 1.608,0.04 0,0 m -149.066,19.302 h 0.397 c 0.407,0 0.737,0.33 0.737,0.736 0,0.321 -0.207,0.587 -0.493,0.689 v 0.049 h 20.406 4.368 v -1.482 h -25.415 z m -37.952,-0.008 c 0.572,0.714 1.176,1.482 1.176,1.482 h 1.553 21.672 c 0.048,-0.028 0.095,-0.062 0.145,-0.08 v -0.051 h 1.778 c -0.201,-0.132 -0.342,-0.348 -0.342,-0.607 0,-0.406 0.33,-0.736 0.738,-0.736 h 6.069 c 0,0 0.002,-0.006 0.002,-0.008 z m -5.713,11.055 c 0,1.149 0.933,2.082 2.081,2.082 h 3.993 l 2.102,-4.164 h -6.095 c -1.148,0 -2.081,0.935 -2.081,2.082 m 44.175,-2.08 v 0.725 h 12.652 8.169 l 0.328,-0.323 -0.7,-2.505 h -20.318 v 1.018 h -0.131 z m 28.491,0.335 v -0.002 h 3.701 l 0.054,0.017 c 2.239,0.66 4.317,0.982 6.353,0.982 2.184,0 3.817,-0.371 5.129,-0.668 0.815,-0.185 1.457,-0.331 2.006,-0.331 h 5.173 l 0.056,0.017 c 2.023,0.614 3.928,0.926 5.662,0.926 1.951,0 3.316,-0.381 4.313,-0.66 0.45,-0.126 0.81,-0.212 1.134,-0.249 -0.524,-0.1 -0.648,-0.486 -0.725,-0.729 -0.097,-0.307 -0.206,-0.654 -1.671,-0.654 h -6.764 c -0.583,0 -0.612,0.089 -0.657,0.224 -0.154,0.465 -0.435,0.754 -1.367,0.754 h -7.972 c -0.931,0 -1.214,-0.289 -1.367,-0.754 -0.045,-0.135 -0.074,-0.224 -0.658,-0.224 h -6.459 c -0.583,0 -0.612,0.089 -0.656,0.224 -0.155,0.465 -0.436,0.754 -1.368,0.754 h -3.406 l -1.157,-0.007 v -2.058 h -1.37 v 2.438 z M 116.631,13.272 c -0.471,0.715 -1.412,1.149 -3.149,1.453 -1.146,0.197 -3.308,0.574 -6.105,1.061 -12.127,2.113 -34.703,6.048 -40.58,6.829 -1.445,0.191 -2.695,0.284 -3.826,0.284 -2.518,0 -3.905,-0.475 -5.127,-0.893 -0.756,-0.259 -1.412,-0.484 -2.272,-0.581 -0.47,-0.053 -1.027,-0.081 -1.648,-0.081 -2.627,0 -5.688,0.48 -5.977,0.527 -0.457,0.109 -7.431,1.772 -9.734,2.32 -0.752,0.179 -1.404,0.269 -1.94,0.269 -1.007,0 -1.402,-0.318 -1.546,-0.509 l -0.098,-0.129 -0.027,-0.159 c 0,-0.002 -0.003,-0.017 -0.004,-0.026 -1.875,0.297 -4.623,0.713 -4.623,0.713 l -1.802,0.652 c -0.112,3.169 -3.898,5.673 -5.002,5.952 0.05,0.12 0.087,0.255 0.087,0.431 0,1.108 -2.916,5.48 -6.67,5.48 h -73.766 v 0.164 l -0.893,0.639 h -1.277 v 0.114 h 3.741 v 2.593 c 0,0.685 -0.024,0.848 -0.72,0.848 -1.064,0 -1.786,-1.683 -1.786,-1.683 h -2.075 c -0.148,0.714 -0.691,1.248 -1.344,1.248 -0.652,0 -1.196,-0.534 -1.343,-1.248 h -0.387 c -1.871,1.555 -4.936,0.45 -4.936,0.45 h -1.553 l -0.403,0.401 h -2.298 c -1.277,1.872 -2.425,0 -2.425,0 h -2.043 v -0.648 h -0.602 v -0.005 c -0.239,0.264 -0.537,0.44 -1.015,0.44 -2.042,0 -2.382,-1.064 -2.382,-2.596 v -0.69 c -0.133,0.081 -0.295,0.137 -0.479,0.137 -0.218,0 -0.414,-0.07 -0.555,-0.181 v 0.593 c 0,0.626 -0.072,0.924 -0.923,0.924 h -0.71 c -0.027,0.039 -0.04,0.083 -0.074,0.12 -0.322,0.356 -0.866,0.509 -1.821,0.509 -1.182,0 -8.302,-0.135 -15.84,-0.278 -7.345,-0.139 -14.94,-0.283 -16.16,-0.283 -0.809,0 -1.436,-0.229 -1.886,-0.662 h -0.937 c -0.738,0 -2.325,-0.032 -2.325,-1.961 v 0.34 h -25.984 c -0.361,0 -0.696,-0.027 -1.014,-0.071 -0.104,-0.015 -0.198,-0.04 -0.298,-0.058 -0.206,-0.04 -0.409,-0.082 -0.598,-0.139 -0.106,-0.031 -0.206,-0.069 -0.306,-0.106 -0.169,-0.062 -0.333,-0.128 -0.488,-0.204 -0.095,-0.045 -0.186,-0.093 -0.276,-0.144 -0.151,-0.084 -0.295,-0.176 -0.434,-0.273 -0.077,-0.053 -0.155,-0.106 -0.228,-0.163 -0.148,-0.115 -0.287,-0.238 -0.423,-0.366 -0.053,-0.049 -0.109,-0.096 -0.16,-0.147 -0.376,-0.378 -0.71,-0.801 -1.02,-1.253 -0.008,-0.013 -0.016,-0.025 -0.025,-0.038 -0.151,-0.223 -0.298,-0.452 -0.441,-0.686 l -0.015,-0.025 c -0.474,-0.777 -0.916,-1.597 -1.41,-2.381 -0.025,-0.04 -0.052,-0.078 -0.077,-0.118 -0.238,-0.373 -0.49,-0.736 -0.764,-1.08 -0.016,-0.021 -0.031,-0.043 -0.047,-0.063 -0.085,-0.105 -0.178,-0.202 -0.267,-0.303 -0.458,-0.516 -0.982,-0.976 -1.605,-1.348 h -0.235 l -0.029,-0.016 c -1.007,-0.549 -2.173,-0.815 -3.568,-0.815 h -0.131 v -0.107 c -0.05,-0.018 -0.097,-0.052 -0.146,-0.08 h -20.128 v 1.563 l -5.376,10.464 c 0.36,0.266 0.621,0.99 0.621,1.85 0,1.086 -0.412,1.965 -0.918,1.965 h -1.327 -0.056 -2.166 -0.386 -0.997 c -0.506,0 -0.918,-0.879 -0.918,-1.965 0,-0.841 0.249,-1.554 0.596,-1.834 h -0.139 l 0.027,-0.153 c 0.007,-0.04 0.701,-4.011 0.036,-6.945 -0.016,10e-4 -0.03,10e-4 -0.041,10e-4 -0.19,0 -0.488,-0.05 -0.501,-0.052 l -0.108,-0.019 v -2.563 c -0.006,-0.187 -0.86,-2.13 -2.131,-2.13 v -0.182 h -1.779 -0.149 c -0.884,0 -1.6,-1.207 -1.6,-2.696 0,-1.488 0.716,-2.694 1.6,-2.694 h 0.149 3.149 c 0,0 2,-0.255 3.106,-2.681 0.119,0 1.725,-0.542 3.633,-0.098 0.309,-0.018 0.629,-0.03 0.967,-0.03 h 33.857 c 0.461,-0.666 1.213,-1.332 2.375,-1.332 h 1.192 c 0,0 0.141,1.134 0.964,1.134 v 0.198 h 28.43 c 0.36,-1.94 2.036,-1.943 4.619,-1.943 1.023,0 2.683,-0.227 4.783,-0.513 3.95,-0.541 9.92,-1.358 17.005,-1.358 9.985,0 16.456,-0.742 20.365,-2.336 0.863,-0.422 1.796,-0.479 2.595,-0.479 v 0 c 0.4,0 0.806,0.016 1.234,0.033 0.448,0.018 0.91,0.037 1.384,0.037 0.416,0 0.728,0.113 0.955,0.344 0.095,0.097 0.16,0.214 0.217,0.339 0.859,0.097 1.379,0.438 1.677,0.888 l 0.282,-0.086 0.082,-0.003 c 0.159,-0.009 6.776,-0.345 14.617,-0.745 l 2.311,-1.875 c -0.082,-1.173 -0.609,-6.337 -3.795,-13.274 -3.34,-7.274 -10.371,-18.044 -24.897,-28.037 l -0.074,-0.061 c -0.325,-0.327 -0.142,-0.64 0.348,-1.48 0.285,-0.488 0.716,-1.196 1.28,-2.1 0.945,-1.517 2.28,-3.615 3.967,-6.237 2.871,-4.458 5.808,-8.948 5.838,-8.993 l 0.264,-0.406 0.426,0.233 c 0.087,0.048 8.794,4.893 18.107,14.844 7.896,8.434 17.717,22.252 21.692,41.42 0.587,0.051 1.519,0.043 2.002,-0.441 h 0.184 c 0.013,-1.982 0.21,-3.984 1.304,-4.436 h -0.007 c 0,0 0.504,-3.189 1.215,-4.182 h 0.785 v 1.646 c 0,0 -0.643,0.831 0,1.474 l 0.348,0.029 v 1.014 h -0.011 c 0.329,0.197 0.525,0.663 1.175,-0.079 -0.01,-0.028 0.187,-0.037 0.453,-0.037 0.56,-0.91 1.99,-2.27 5.576,-2.438 1.434,-0.067 2.779,-0.151 4.082,-0.231 2.406,-0.148 4.699,-0.292 7.012,-0.292 0.425,0 0.849,0.005 1.277,0.016 2.417,0.059 3.689,0.976 4.407,1.86 0.728,-0.738 1.698,-2.208 3.007,-5.458 3.223,-7.999 5.983,-13.503 6.809,-17.757 0.828,-4.254 0.414,-5.701 7.037,-5.02 6.621,0.679 8.822,5.446 8.674,7.659 -0.149,2.212 -4.674,11.572 -6.053,15.571 -1.379,3.999 -1.711,5.872 -0.717,7.829 0.747,1.472 1.509,4.133 1.288,5.36 l 0.411,-0.023 0.959,1.762 c 1.185,-0.292 3.689,-0.903 5.104,-1.199 0.376,-0.079 0.688,-0.157 0.97,-0.225 0.315,-1.771 3.499,-2.977 8.377,-4.825 1.502,-0.569 3.206,-1.214 4.989,-1.939 7.306,-2.97 51.941,-23.415 57.443,-26.596 1.447,-0.837 2.738,-1.259 3.842,-1.259 2.478,0 4,2.05 4.287,5.791 0.338,6.333 5.25,28.269 5.775,30.449 0.297,1.243 0.534,2.227 -0.019,3.07"
             style="fill:#231f20;fill-opacity:1;fill-rule:nonzero;stroke:none"
             id="path100"
             inkscape:connector-curvature="0" /></g></g></g></g></svg>