<?xml version="1.0" encoding="iso-8859-1"?>
<!-- Generator: Adobe Illustrator 19.0.0, SVG Export Plug-In . SVG Version: 6.00 Build 0)  -->
<svg version="1.1" id="Layer_1" xmlns="http://www.w3.org/2000/svg" xmlns:xlink="http://www.w3.org/1999/xlink" x="0px" y="0px"
	 viewBox="0 0 496.159 496.159" style="enable-background:new 0 0 496.159 496.159;" xml:space="preserve">
<path style="fill:#32BEA6;" d="M0,248.085C0,111.064,111.07,0.003,248.076,0.003c137.012,0,248.083,111.061,248.083,248.082
	c0,137.002-111.07,248.071-248.083,248.071C111.07,496.156,0,385.087,0,248.085z"/>
<g>
	<path style="fill:#FFFFFF;" d="M96.627,239.349l117.188-71.957c3.199-1.965,7.409-2.051,10.685-0.217
		c3.335,1.865,5.406,5.398,5.406,9.219V319.74c0,3.814-2.064,7.344-5.39,9.211c-1.576,0.887-3.366,1.354-5.175,1.354
		c-1.94,0-3.841-0.533-5.495-1.541L96.658,257.373c-3.119-1.9-5.062-5.35-5.067-9.002C91.585,244.716,93.515,241.259,96.627,239.349
		z"/>
	<path style="fill:#FFFFFF;" d="M249.284,239.349l117.188-71.957c3.199-1.965,7.409-2.051,10.684-0.217
		c3.335,1.865,5.406,5.398,5.406,9.219V319.74c0,3.814-2.064,7.344-5.39,9.211c-1.576,0.887-3.365,1.354-5.175,1.354
		c-1.939,0-3.84-0.533-5.495-1.541l-117.187-71.391c-3.12-1.9-5.062-5.35-5.068-9.002
		C244.241,244.716,246.17,241.259,249.284,239.349z"/>
</g>
<g>
</g>
<g>
</g>
<g>
</g>
<g>
</g>
<g>
</g>
<g>
</g>
<g>
</g>
<g>
</g>
<g>
</g>
<g>
</g>
<g>
</g>
<g>
</g>
<g>
</g>
<g>
</g>
<g>
</g>
</svg>
