<?xml version="1.0" encoding="utf-8"?>
<!-- Svg Vector Icons : http://www.onlinewebfonts.com/icon -->
<!DOCTYPE svg PUBLIC "-//W3C//DTD SVG 1.1//EN" "http://www.w3.org/Graphics/SVG/1.1/DTD/svg11.dtd">
<svg version="1.1" xmlns="http://www.w3.org/2000/svg" xmlns:xlink="http://www.w3.org/1999/xlink" x="0px" y="0px" viewBox="0 0 1000 1000" enable-background="new 0 0 1000 1000" xml:space="preserve">
<metadata> Svg Vector Icons : http://www.onlinewebfonts.com/icon </metadata>
<g><path d="M341.4,856.1l-168.2,25.7c-13.4,2-26.7-4.1-33.8-15.6l-62.7-102c-3.5-5.7-5.1-12.2-4.9-18.6c0-0.5-0.1-1.1-0.1-1.6V528.2c0-18.6,15.1-33.7,33.7-33.7c18.6,0,33.7,15.1,33.7,33.7v89.5l134.7-239.9l67.7,115.5V856.1z M894.7,494.5c-18.6,0-33.7,15.1-33.7,33.7v89.5L726.3,377.8l-67.7,115.5v362.8l168.2,25.7c13.4,2,26.7-4.1,33.8-15.7l62.7-102c3.5-5.7,5.1-12.2,4.9-18.6c0-0.5,0.1-1.1,0.1-1.6V528.2C928.3,509.6,913.3,494.5,894.7,494.5z M591.2,857.6l-57.5,42.9v55.9c0,18.6-15.1,33.7-33.7,33.7c-18.6,0-33.7-15.1-33.7-33.7v-55.9l-57.5-42.9V484.2c0-6-1.6-11.9-4.6-17l-92.2-157.4L470.6,27.2c6-10.6,17.2-17.2,29.4-17.2c12.2,0,23.4,6.6,29.4,17.2l158.7,282.6l-92.2,157.4c-3,5.2-4.6,11-4.6,17V857.6z M591,318.2c14.3-11.8,16.4-33.1,4.5-47.4c-3.9-4.7-39.7-46.2-94.7-46.2c-54.5,0-91.7,40.8-95.8,45.5c-12.3,14-10.9,35.4,3.1,47.6c6.4,5.6,14.3,8.4,22.2,8.4c9.3,0,18.6-3.9,25.2-11.4c5.7-6.3,24.9-22.6,45.3-22.6c23.9,0,42.8,21.7,42.8,21.7C555.5,328,576.7,330.1,591,318.2z"/><g></g><g></g><g></g><g></g><g></g><g></g><g></g><g></g><g></g><g></g><g></g><g></g><g></g><g></g><g></g></g>
</svg>