<?xml version="1.0" encoding="iso-8859-1"?>
<!-- Generator: Adobe Illustrator 18.0.0, SVG Export Plug-In . SVG Version: 6.00 Build 0)  -->
<!DOCTYPE svg PUBLIC "-//W3C//DTD SVG 1.1//EN" "http://www.w3.org/Graphics/SVG/1.1/DTD/svg11.dtd">
<svg version="1.1" id="Capa_1" xmlns="http://www.w3.org/2000/svg" xmlns:xlink="http://www.w3.org/1999/xlink" x="0px" y="0px"
	 viewBox="0 0 236.428 236.428" style="enable-background:new 0 0 236.428 236.428;" xml:space="preserve">
<g>
	<path d="M56.459,92.297h-24.05c-2.761,0-5,2.239-5,5s2.239,5,5,5h24.05c2.761,0,5-2.239,5-5S59.22,92.297,56.459,92.297z"/>
	<path d="M34.696,118.214c0-2.761-2.239-5-5-5H5c-2.761,0-5,2.239-5,5s2.239,5,5,5h24.696
		C32.457,123.214,34.696,120.975,34.696,118.214z"/>
	<path d="M56.459,134.13h-24.05c-2.761,0-5,2.239-5,5s2.239,5,5,5h24.05c2.761,0,5-2.239,5-5S59.22,134.13,56.459,134.13z"/>
	<path d="M184.59,65.929h-56.996c-4.142,0-7.5,3.358-7.5,7.5v8.452h-4.667v-8.452c0-4.142-3.358-7.5-7.5-7.5H82.599
		c-4.142,0-7.5,3.358-7.5,7.5v89.57c0,4.142,3.358,7.5,7.5,7.5h25.329c4.142,0,7.5-3.358,7.5-7.5v-8.452h4.667v8.452
		c0,4.142,3.358,7.5,7.5,7.5h56.996c28.583,0,51.837-23.254,51.837-51.837v-0.896C236.428,89.183,213.174,65.929,184.59,65.929z
		 M100.428,155.499H90.099v-74.57h10.329V155.499z M115.428,144.547V91.88h4.667v52.667H115.428z M221.428,118.662
		c0,20.312-16.525,36.837-36.837,36.837h-49.496v-74.57h49.496c20.312,0,36.837,16.525,36.837,36.837V118.662z"/>
</g>
<g>
</g>
<g>
</g>
<g>
</g>
<g>
</g>
<g>
</g>
<g>
</g>
<g>
</g>
<g>
</g>
<g>
</g>
<g>
</g>
<g>
</g>
<g>
</g>
<g>
</g>
<g>
</g>
<g>
</g>
</svg>
